<?xml version="1.0" encoding="UTF-8" standalone="no"?>
<!-- Created with Inkscape (http://www.inkscape.org/) -->

<svg
   width="40.94825"
   height="36"
   viewBox="0 0 40.94825 36"
   version="1.1"
   id="SVGRoot"
   sodipodi:docname="heart.svg"
   inkscape:export-filename="heart.svg"
   inkscape:export-xdpi="96"
   inkscape:export-ydpi="96"
   xmlns:inkscape="http://www.inkscape.org/namespaces/inkscape"
   xmlns:sodipodi="http://sodipodi.sourceforge.net/DTD/sodipodi-0.dtd"
   xmlns="http://www.w3.org/2000/svg"
   xmlns:svg="http://www.w3.org/2000/svg">
  <sodipodi:namedview
     id="namedview1633"
     pagecolor="#ffffff"
     bordercolor="#000000"
     borderopacity="0.25"
     inkscape:showpageshadow="2"
     inkscape:pageopacity="0.0"
     inkscape:pagecheckerboard="0"
     inkscape:deskcolor="#d1d1d1"
     inkscape:document-units="px"
     showgrid="false"
     inkscape:zoom="0.25"
     inkscape:cx="891.5"
     inkscape:cy="784.0"
     inkscape:window-width="1649"
     inkscape:window-height="1052"
     inkscape:window-x="0"
     inkscape:window-y="0"
     inkscape:window-maximized="0"
     inkscape:current-layer="layer1" />
  <defs
     id="defs1628" />
  <g
     inkscape:label="Layer 1"
     inkscape:groupmode="layer"
     id="layer1"
     transform="translate(-0.14945042,-0.15)">
    <g
       id="g4"
       style="fill:#484848;fill-opacity:1;stroke-width:11.5194"
       inkscape:export-filename="g4.svg"
       inkscape:export-xdpi="96"
       inkscape:export-ydpi="96"
       transform="matrix(0.08680974,0,0,0.08680974,0.14941114,-2.3241644)">
      <path
         d="m 433.601,67.001 c -24.7,-24.7 -57.4,-38.2 -92.3,-38.2 -34.9,0 -67.7,13.6 -92.4,38.3 l -12.9,12.9 -13.1,-13.1 c -24.7,-24.7 -57.6,-38.4 -92.5,-38.4 -34.8,0 -67.6,13.6 -92.2,38.2 -24.7,24.7 -38.3,57.5 -38.2,92.4 0,34.9 13.7,67.6 38.4,92.3 l 187.8,187.8 c 2.6,2.6 6.1,4 9.5,4 3.4,0 6.9,-1.3 9.5,-3.9 l 188.2,-187.5 c 24.7,-24.7 38.3,-57.5 38.3,-92.4 0.1,-34.9 -13.4,-67.7 -38.1,-92.4 z m -19.2,165.7 -178.7,178 -178.3,-178.3 c -19.6,-19.6 -30.4,-45.6 -30.4,-73.3 0,-27.7 10.7,-53.7 30.3,-73.2 19.5,-19.5 45.5,-30.3 73.1,-30.3 27.7,0 53.8,10.8 73.4,30.4 l 22.6,22.6 c 5.3,5.3 13.8,5.3 19.1,0 l 22.4,-22.4 c 19.6,-19.6 45.7,-30.4 73.3,-30.4 27.6,0 53.6,10.8 73.2,30.3 19.6,19.6 30.3,45.6 30.3,73.3 0.1,27.7 -10.7,53.7 -30.3,73.3 z"
         id="path2"
         style="fill:#484848;fill-opacity:1;stroke-width:11.5194" />
    </g>
  </g>
</svg>
