<?xml version="1.0" encoding="UTF-8" standalone="no"?>
<!-- Created with Inkscape (http://www.inkscape.org/) -->

<svg
   version="1.1"
   id="svg2"
   width="773.66888"
   height="239.66557"
   viewBox="0 0 773.66888 239.66557"
   sodipodi:docname="tahwissalogo.svg"
   xmlns:inkscape="http://www.inkscape.org/namespaces/inkscape"
   xmlns:sodipodi="http://sodipodi.sourceforge.net/DTD/sodipodi-0.dtd"
   xmlns="http://www.w3.org/2000/svg"
   xmlns:svg="http://www.w3.org/2000/svg">
  <defs
     id="defs6" />
  <sodipodi:namedview
     id="namedview4"
     pagecolor="#ffffff"
     bordercolor="#000000"
     borderopacity="0.25"
     inkscape:showpageshadow="2"
     inkscape:pageopacity="0.0"
     inkscape:pagecheckerboard="0"
     inkscape:deskcolor="#d1d1d1"
     showgrid="false"
     inkscape:zoom="0.25344435"
     inkscape:cx="-1266.5502"
     inkscape:cy="443.88442"
     inkscape:window-width="1920"
     inkscape:window-height="1052"
     inkscape:window-x="0"
     inkscape:window-y="28"
     inkscape:window-maximized="1"
     inkscape:current-layer="g8"
     showguides="false" />
  <g
     inkscape:groupmode="layer"
     inkscape:label="Image"
     id="g8"
     transform="translate(1661.9978,455.80895)">
    <g
       id="g6770"
       inkscape:export-filename="tahwissalogo.svg"
       inkscape:export-xdpi="96"
       inkscape:export-ydpi="96">
      <g
         id="g6822">
        <path
           id="path19579-3-5"
           style="color:#000000;fill:none;fill-opacity:1;stroke:#484848;stroke-width:3;stroke-dasharray:none;stroke-opacity:1;paint-order:markers stroke fill"
           d="m -1589.1194,-339.93358 c -3.4353,0.41151 -6.9745,1.84634 -9.9492,4.36328 l -0.012,0.008 v 0.002 l -52.3867,44.39844 a 118.33278,118.33278 0 0 0 12.7656,23.11719 c 0.5182,-0.67655 2.3398,-1.95703 2.3398,-1.95703 l 31.2344,-26.40235 c -1.6573,-4.06011 -2.5046,-8.49985 -1.7734,-13.5664 3.1158,-21.59171 17.416,-29.43555 17.416,-29.43555 0,0 0.6183,-0.41893 0.3652,-0.52734 z m -49.6914,72.05859 c -0.041,0.0757 -0.065,0.14138 -0.039,0.18359 0.041,0.0673 0.2308,0.2864 0.2968,0.37891 -0.093,-0.12682 -0.2362,-0.30437 -0.289,-0.39062 -0.025,-0.0401 2e-4,-0.10392 0.031,-0.17188 z m 1.2559,1.8418 c 0.905,1.11564 1.9673,2.40578 2.7754,3.49414 0.04,0.0536 0.1774,0.19044 0.2265,0.25195 -0.066,-0.0816 -0.1669,-0.19389 -0.2187,-0.26367 -0.7789,-1.04903 -1.891,-2.38549 -2.7832,-3.48242 z m 4.6289,5.55273 c 0.082,0.0853 0.1007,0.11706 0.1855,0.20508 a 118.33278,118.33278 0 0 0 19.002,18.08789 c 0.6685,0.61442 1.7637,1.62305 1.7637,1.62305 0,0 0.021,0.0175 0.021,0.0176 0,-0.003 0.01,-0.006 0.014,-0.01 -2e-4,-1.7e-4 -0.027,-0.0195 -0.027,-0.0195 0,0 -15.2741,-13.97101 -20.959,-19.9043 z" />
        <path
           style="fill:none;fill-opacity:1;stroke:#484848;stroke-width:3;stroke-dasharray:none;stroke-opacity:1;paint-order:markers stroke fill"
           id="path12207"
           sodipodi:type="arc"
           sodipodi:cx="-1542.165"
           sodipodi:cy="-335.97617"
           sodipodi:rx="118.33279"
           sodipodi:ry="118.33279"
           sodipodi:start="3.1416607"
           sodipodi:end="3.141054"
           sodipodi:arc-type="arc"
           d="m -1660.4978,-335.98422 a 118.33279,118.33279 0 0 1 118.3229,-118.32473 118.33279,118.33279 0 0 1 118.3426,118.30494 118.33279,118.33279 0 0 1 -118.2869,118.36062 118.33279,118.33279 0 0 1 -118.3786,-118.26904"
           sodipodi:open="true"
           inkscape:export-filename="tahwissalogo.svg"
           inkscape:export-xdpi="96"
           inkscape:export-ydpi="96" />
        <path
           id="rect13039"
           style="fill:none;fill-opacity:1;stroke:#484848;stroke-width:3;stroke-dasharray:none;stroke-opacity:1;paint-order:markers stroke fill"
           d="m -1514.4714,-367.24613 c -4.0997,-0.0801 -8.5827,1.46084 -12.2162,4.5401 l -41.8273,35.4475 -10.0592,-9.67456 c -4.9008,-4.71379 -14.0469,-4.10146 -20.5065,1.37279 l -52.388,44.39683 a 118.33278,118.33278 0 0 0 109.3035,73.52008 118.33278,118.33278 0 0 0 110.0924,-75.15472 l -74.1085,-71.2807 c -2.1441,-2.06228 -5.1015,-3.10507 -8.2902,-3.16732 z" />
        <path
           style="color:#000000;fill:none;fill-opacity:1;stroke:#484848;stroke-width:3;stroke-dasharray:none;stroke-opacity:1;paint-order:markers stroke fill"
           d="m -1517.2212,-367.10411 c 0,0 -1.1294,0.0998 -2.9055,0.50973 -2.3011,0.53109 -4.7878,2.54961 -6.5154,3.88789 l 0.011,-0.0104 -109.6975,92.72443 v 0 0 0 l -0.2677,0.42053 0.2677,-0.42053 c 0,0 -2.7209,1.90614 -2.4799,2.29982 0.4819,0.78735 2.7801,3.41476 4.0704,5.15254 2.5806,3.47554 22.8055,21.97485 22.8055,21.97485 0,0 13.8465,10.62516 29.0408,15.69248 0,0 10.2568,3.74709 19.4541,5.30158 0.1279,0.11934 1.5019,0.32158 2.3553,0.36299 0,0 -8.8467,-13.14954 1.4702,-29.85156 4.156,-6.72818 14.4391,-14.55337 23.9368,-21.50157 4.7488,-3.47411 9.3023,-6.73518 12.8059,-9.55986 1.7518,-1.41234 3.241,-2.71465 4.3652,-3.88673 1.1243,-1.17207 1.8899,-2.20629 2.1745,-3.14182 1.334,-4.38571 0.6387,-8.36226 -1.0867,-12.15719 -1.7254,-3.79494 -4.4707,-7.42389 -7.266,-11.19565 -5.5905,-7.54353 -11.3679,-15.61923 -9.7812,-26.61515 3.1158,-21.59178 17.4156,-29.43606 17.4156,-29.43606 0,0 0.8326,-0.54291 0.289,-0.56798 z"
           id="path19579-3"
           sodipodi:nodetypes="csccccccscssccccssssssssccc" />
      </g>
      <text
         xml:space="preserve"
         style="font-style:normal;font-variant:normal;font-weight:normal;font-stretch:normal;font-size:104.988px;line-height:0;font-family:Montserrat;-inkscape-font-specification:Montserrat;text-align:center;text-anchor:middle;opacity:1;fill:#484848;fill-opacity:1;stroke:none;stroke-width:0.999999;stroke-dasharray:none;stroke-opacity:1;paint-order:markers stroke fill"
         x="-1133.3809"
         y="-295.08334"
         id="text30341"><tspan
           sodipodi:role="line"
           id="tspan30339"
           x="-1133.3809"
           y="-295.08334"
           style="font-style:normal;font-variant:normal;font-weight:bold;font-stretch:normal;font-family:Montserrat;-inkscape-font-specification:Montserrat;fill:#484848;fill-opacity:1;stroke:none;stroke-width:0.999999">Tahwissa</tspan><tspan
           sodipodi:role="line"
           x="-1133.3809"
           y="-295.08334"
           style="font-style:normal;font-variant:normal;font-weight:bold;font-stretch:normal;font-family:Montserrat;-inkscape-font-specification:Montserrat;fill:#484848;fill-opacity:1;stroke:none;stroke-width:0.999999"
           id="tspan497" /></text>
    </g>
  </g>
</svg>
