<svg width="68" height="68" viewBox="0 0 68 68" fill="none" xmlns="http://www.w3.org/2000/svg">
<path d="M21.3018 32.9297C20.3728 33.041 19.4157 33.429 18.6113 34.1096L18.608 34.1118V34.1123L4.44141 46.1187C5.35526 48.3248 6.51319 50.4217 7.89354 52.3702C8.03367 52.1872 8.52625 51.8409 8.52625 51.8409L16.9728 44.7011C16.5246 43.6032 16.2955 42.4025 16.4932 41.0324C17.3358 35.1935 21.2029 33.0724 21.2029 33.0724C21.2029 33.0724 21.3701 32.9591 21.3017 32.9298L21.3018 32.9297ZM7.86402 52.4161C7.85294 52.4365 7.84643 52.4543 7.85346 52.4657C7.86455 52.4839 7.91589 52.5431 7.93374 52.5682C7.90859 52.5339 7.86985 52.4859 7.85557 52.4625C7.84881 52.4517 7.85563 52.4344 7.86396 52.4161H7.86402ZM8.20364 52.9141C8.44837 53.2158 8.73564 53.5647 8.95417 53.859C8.96499 53.8735 9.00216 53.9105 9.01544 53.9271C8.99759 53.9051 8.97029 53.8747 8.95628 53.8558C8.74565 53.5722 8.44491 53.2108 8.20364 52.9141V52.9141ZM9.4554 54.4157C9.47758 54.4388 9.48265 54.4474 9.50558 54.4712C11.0319 56.2871 12.7553 57.9276 14.6442 59.3626C14.8249 59.5287 15.1211 59.8015 15.1211 59.8015C15.1211 59.8015 15.1268 59.8062 15.1268 59.8062C15.1268 59.8054 15.1295 59.8046 15.1306 59.8035C15.1305 59.8035 15.1233 59.7983 15.1233 59.7983C15.1233 59.7983 10.9928 56.0202 9.45547 54.4157L9.4554 54.4157Z" stroke="#484848" stroke-width="3"/>
<path d="M2 33.9978C2.00058 25.5117 5.37188 17.3734 11.3724 11.3728C17.3729 5.37214 25.5112 2.00071 33.9973 2C42.4834 1.9993 50.6223 5.36937 56.6238 11.369C62.6253 17.3686 65.998 25.5064 66 33.9925C66.002 42.4786 62.6332 50.6179 56.6345 56.6204C50.6358 62.6228 42.4985 65.9967 34.0124 66C25.5263 66.0033 17.3864 62.6357 11.3831 56.6379C5.37972 50.6401 2.00457 42.5033 2 34.0172" stroke="#484848" stroke-width="3"/>
<path d="M41.4887 25.5438C40.3801 25.5221 39.1678 25.9388 38.1852 26.7715L26.8741 36.3574L24.1538 33.7411C22.8285 32.4664 20.3552 32.632 18.6084 34.1124L4.44141 46.1183C6.84332 51.9885 10.9355 57.0125 16.1983 60.5524C21.4611 64.0922 27.6572 65.9883 33.9997 65.9999C40.4296 65.9955 46.709 64.0541 52.0194 60.4289C57.3299 56.8037 61.4251 51.6628 63.7713 45.6763L43.7306 26.4003C43.1508 25.8426 42.351 25.5606 41.4887 25.5438V25.5438Z" stroke="#484848" stroke-width="3"/>
<path d="M40.7455 25.5829C40.7455 25.5829 40.4401 25.6099 39.9598 25.7207C39.3375 25.8644 38.6651 26.4102 38.1979 26.7721L38.2008 26.7693L8.53603 51.8442L8.46364 51.9579L8.53603 51.8442C8.53603 51.8442 7.80024 52.3597 7.86542 52.4661C7.99573 52.6791 8.6172 53.3896 8.96612 53.8595C9.66398 54.7994 15.1333 59.802 15.1333 59.802C15.1333 59.802 18.8777 62.6753 22.9866 64.0456C22.9866 64.0456 25.7603 65.0589 28.2475 65.4793C28.282 65.5116 28.6536 65.5663 28.8844 65.5775C28.8844 65.5775 26.492 62.0215 29.282 57.5049C30.4059 55.6854 33.1866 53.5693 35.7551 51.6904C37.0392 50.7509 38.2706 49.869 39.2181 49.1052C39.6918 48.7232 40.0945 48.371 40.3985 48.0541C40.7026 47.7371 40.9096 47.4575 40.9866 47.2045C41.3473 46.0185 41.1593 44.9431 40.6927 43.9169C40.2261 42.8906 39.4837 41.9093 38.7278 40.8893C37.216 38.8493 35.6536 36.6655 36.0827 33.6919C36.9253 27.853 40.7923 25.7317 40.7923 25.7317C40.7923 25.7317 41.0175 25.5849 40.8705 25.5781L40.7455 25.5829Z" stroke="#484848" stroke-width="3"/>
</svg>
