<?xml version="1.0" encoding="UTF-8" standalone="no"?>
<!-- Generator: Adobe Illustrator 17.0.0, SVG Export Plug-In . SVG Version: 6.00 Build 0)  -->

<svg
   version="1.1"
   id="svg2"
   sodipodi:docname="Oranie.svg"
   inkscape:version="1.2.1 (9c6d41e410, 2022-07-14, custom)"
   x="0px"
   y="0px"
   width="207.52948"
   height="125.9959"
   viewBox="0 0 207.52948 125.99589"
   enable-background="new 0 0 982.451 955.452"
   xml:space="preserve"
   xmlns:inkscape="http://www.inkscape.org/namespaces/inkscape"
   xmlns:sodipodi="http://sodipodi.sourceforge.net/DTD/sodipodi-0.dtd"
   xmlns="http://www.w3.org/2000/svg"
   xmlns:svg="http://www.w3.org/2000/svg"><defs
   id="defs63" /><sodipodi:namedview
   id="namedview61"
   pagecolor="#ffffff"
   bordercolor="#000000"
   borderopacity="0.25"
   inkscape:showpageshadow="2"
   inkscape:pageopacity="0.0"
   inkscape:pagecheckerboard="0"
   inkscape:deskcolor="#d1d1d1"
   showgrid="false"
   inkscape:zoom="2.8284272"
   inkscape:cx="183.14065"
   inkscape:cy="-13.965359"
   inkscape:window-width="1920"
   inkscape:window-height="1052"
   inkscape:window-x="0"
   inkscape:window-y="28"
   inkscape:window-maximized="1"
   inkscape:current-layer="svg2" />












<path
   id="_x31_3_Tlemcen"
   fill="#86AAE0"
   stroke="#ffffff"
   stroke-width="0.75"
   stroke-linecap="round"
   d="m 51.700928,63.246257 -1.372,0.14 -0.524,-1.82 -6.978,-3.496 -0.662,0.66 -0.744,-1.544 -2.162,0.91 -4.676,-1.586 -1.836,2.672 -2.166,0.528 -2.102,-1.336 0.404,-1.908 -1.694,-1.246 -7.996,5.854 -1.344,-0.71 -4.346,2.336 -6.8939996,0.496 -3.676,-1.688 -2.33399995,0.828 -0.206,1.9 5.20399995,4.898 2.112,1.602 2.7759996,-0.436 0.054,2.98 3.234,1.92 0.178,1.766 6.256,3.432 -5.002,6.418 1.538,0.628 2.74,4.762 2.57,1.164 -4.238,5.132 3.164,4.312003 -0.426,3.614 2.396,7.512 7.22,-5.24 9.986,0.044 2.452,-2.816 3.058,-0.966 12.186,-11.266003 -0.724,-1.586 -1.914,-0.396 3.218,-1.902 2.57,-5.506 -0.46,-1.372 0.994,0.072 -0.548,-2.01 -4.75,0.542 0.866,-6.388 -2.354,0.482 1.606,-2.27 -2.382,-0.092 -1.012,-3.654 2.626,-4.254 z"
   style="fill:#00ff00;fill-opacity:1" />
<path
   id="_x31_4_Tiaret"
   fill="#86AAE0"
   stroke="#ffffff"
   stroke-width="0.75"
   stroke-linecap="round"
   d="m 182.08293,41.330257 -2.654,0.524 0.442,2.792 13.554,8.214 2.1,3.676 5.374,-4.598 2.102,1.592 0.656,2.25 3.496,0.836 -0.016,3.042 -1.356,0.518 -2.242,4.502 2.86,2.554 -6.456,2.55 -2.894,9.322 -2.94,0.918 0.336,4.854 -6.028,0.746 -0.87,2.088 -3.956,1.772 -4.694,5.13 -9.754,3.506 -3.678,4.176003 -0.73,4.876 -3.288,1.954 -0.546,-2.278 -7.55,4.456 1.616,2.69 -4.39,2.92 -2.238,-3.154 -0.432,-3.686 -11.082,0.59 1.344,-9.764 -7.944,-1.654003 3.312,-5.814 -5.948,-2.448 -0.632,-1.062 1.51,-1.062 -0.9,-2.36 -2.122,0.916 -3.462,-6.13 0.77,-3.416 -1.112,-1.846 6.324,-4.658 -3.19,-4.866 -2.806,-1.264 -0.562,-1.982 -6.594,0.776 2.144,-3.54 3.104,-2.2 -0.492,-1.898 2.35,-2.82 2.166,-0.322 3.042,1.578 2.224,-0.704 1.746,-4.212 1.378,-0.562 -2.982,-3.108 1.802,-0.36 3.454,-5.756 2.428,-0.194 0.224,-1.736 1.622,0.22 0.328,-1.826 4.116,0.414 1.136,-1.972 2.898,-1.144 2.69,3.34 1.178,-4.596 2.538,1.86 1.076,-0.606 2.706,1.528 0.122,2.83 3.906,-0.348 2.09,3.438 1.626,0.31 0.344,-2.094 1.916,1.944 7.594,-0.864 4.868,-2.674 -1.118,1.342 3.1,0.134 z"
   style="fill:#00ff00;fill-opacity:1" />





<path
   id="_x32_0_Saida"
   fill="#86AAE0"
   stroke="#ffffff"
   stroke-width="0.75"
   stroke-linecap="round"
   d="m 130.22493,99.242257 -5.706,-1.468 -9.166,6.268003 -3.464,-4.592003 -5.798,4.018003 -4.346,-0.506 -4.190002,-4.254003 -4.662,-1.526 -3,-2.996 -4.4,2.496 -0.274,-4.306 -1.96,-2.192 0.512,-3.02 4.982,2.498 1.296,3.766 2.24,-3.332 -2.756,-5.68 -4.226,-2.748 -0.588,-2.208 -3.54,-0.326 0.808,-2.382 -2.658,-1.802 2.328,-1.602 -0.792,-4.174 3.624,-0.394 -0.97,-3.526 0.704,-1.892 2.636,-0.806 1.964,0.014 1.33,-2.48 0.69,3.952 5.166,-0.378 2.602,1.736 2.162002,-0.194 0.41,1.812 2.02,1.324 4.988,-3.298 1.548,1.78 1.998,0.24 3.082,-3.036 6.594,-0.776 0.562,1.982 2.806,1.264 3.19,4.866 -6.324,4.658 1.112,1.846 -0.77,3.416 3.462,6.13 2.122,-0.916 0.9,2.36 -1.51,1.062 0.632,1.062 5.948,2.448 z"
   style="fill:#00ff00;fill-opacity:1" />

<path
   id="_x32_2_Sidi_Bel_Abbes"
   fill="#86AAE0"
   stroke="#ffffff"
   stroke-width="0.75"
   stroke-linecap="round"
   d="m 72.472928,45.818257 -1.284,1.986 0.48,1.928 -3.006,1.494 -0.364,-1.344 -5.676,0.994 -0.136,1.456 -1.936,0.912 -1.626,-1.096 -1.562,2.79 -1.346,-0.358 0.572,3.892 -2.76,0.922 -0.496,2.902 -1.636,0.95 3.884,2.124 -2.626,4.254 1.012,3.654 2.382,0.092 -1.606,2.27 2.354,-0.482 -0.866,6.388 4.75,-0.542 0.548,2.01 -0.994,-0.072 0.46,1.372 -2.57,5.506 -3.218,1.902 1.914,0.396 0.724,1.586 -12.187,11.266003 2.16,3.262 4.266,-3.134 1.176,2.036 0.684,-0.834 5.932,1.788 8.108,-5.02 3.686,2.082 6.266,19.538 0.628,-2.258 1.708,0.082 4.182,-5.77 3.264,-1.422 2.748,0.398 3.004,-6.134 1.884,-1.382 -2.464,-11.018003 -3,-2.996 -4.4,2.496 -0.274,-4.306 -1.96,-2.192 0.512,-3.02 4.982,2.498 1.296,3.766 2.24,-3.332 -2.756,-5.68 -4.226,-2.748 -0.588,-2.208 -3.54,-0.326 0.808,-2.382 -2.658,-1.802 2.328,-1.602 -0.792,-4.174 3.624,-0.394 -0.97,-3.526 0.704,-1.892 2.636,-0.806 -1.608,-4.406 0.75,-1.93 2.954,-1.422 -1.91,-0.71 -2.44,2.038 -0.436,-1.098 2.624,-1.714 0.758,-1.974 -5.454,-1.71 -0.704,-1.264 -1.504,1.764 -3.126,-0.24 0.464,-4.508 -3.176,1.204 z"
   style="fill:#00ff00;fill-opacity:1" />




<path
   id="_x32_7_Mostaganem"
   fill="#86AAE0"
   stroke="#ffffff"
   stroke-width="0.75"
   stroke-linecap="round"
   d="m 89.872928,28.222257 5.928,-3.698 4.676002,-9.342 3.69,-3.884 18.374,-10.79000024 3.48,-0.116 -2,6.56600004 -3.958,4.9420002 2.578,2.7 -1.268,1.398 0.718,1.742 -4.252,0.186 -1.106,1.21 -2.452,-1.144 -1.692,2.036 0.626,1.534 1.348,-0.072 -1.18,1.984 0.454,1.82 -2.664,2.874 -1.754,-0.746 -1.734,1.078 -3.488,4.148 -1.806,-0.272 -1.212,1.926 -0.06,-1.526 -2.140002,0.36 -2.058,-2.854 -4.504,1.198 z"
   style="fill:#00ff00;fill-opacity:1" />

<path
   id="_x32_9_Mascara"
   fill="#86AAE0"
   stroke="#ffffff"
   stroke-width="0.75"
   stroke-linecap="round"
   d="m 104.19693,32.643257 1.156,0.388 2.434,7.222 3.432,-0.986 0.25,1.048 1.716,-1.222 2.564,3.604 3.78,-0.082 1.836,1.834 3.442,-0.17 0.59,1.324 4.094,0.636 2.982,3.108 -1.378,0.562 -1.746,4.212 -2.224,0.704 -3.042,-1.578 -2.166,0.322 -2.35,2.82 0.492,1.898 -3.104,2.2 -2.144,3.54 -3.082,3.036 -1.998,-0.24 -1.548,-1.78 -4.988,3.298 -2.02,-1.324 -0.41,-1.812 -2.162002,0.194 -2.602,-1.736 -5.166,0.378 -0.69,-3.952 -1.33,2.48 -1.964,-0.014 -1.608,-4.406 0.75,-1.93 2.954,-1.422 -1.91,-0.71 -2.44,2.038 -0.436,-1.098 2.624,-1.714 0.758,-1.974 -5.454,-1.71 -0.704,-1.264 -1.504,1.764 -3.126,-0.24 0.464,-4.508 -3.176,1.204 -1.574,-0.762 0.638,-1.498 2.06,-0.17 -0.74,-1.9 3.166,-0.76 0.526,-3.482 5.25,-4.208 -1.334,-0.012 1.778,-3.066 2.864,2.178 3.162,-4.58 2.576,3.154 4.504,-1.198 2.058,2.854 2.140002,-0.36 0.06,1.526 1.212,-1.926 z"
   style="fill:#00ff00;fill-opacity:1" />

<path
   id="_x33_1_Oran"
   fill="#f22e10"
   stroke="#ffffff"
   stroke-width="0.75"
   stroke-linecap="round"
   d="m 72.472928,45.818257 0.638,-1.498 2.06,-0.17 -0.74,-1.9 3.166,-0.76 0.526,-3.482 5.25,-4.208 -1.334,-0.012 1.778,-3.066 2.864,2.178 3.194,-4.678 -6.864,-1.85 -1.272,-1.468 0.56,-1.524 -1.792,-1.692 -1.962,0.05 -1.35,1.342 -3,0.22 -0.66,4.402 -4.986,3.834 -2.652,0.022 -0.812,-1.52 -5.098,-1.476 -1.502,2.678 -1.704,0.508 -1.588,-1.18 -5.218,4.528 2.682,2.858 -0.444,1.434 2.016,0.014 -0.766,2.038 -1.786,0.502 0.348,3.182 0.024,-1.242 1.788,-0.09 -0.404,-1.192 1.642,1.314 3.14,0.042 10.132,-3.248 1.552,5.842 -1.544,1.128 -0.054,2.202 0.364,1.344 3.006,-1.494 -0.48,-1.928 z"
   style="fill:#00ff00;fill-opacity:1" />






<path
   id="_x33_8_Tissemsilt"
   fill="#86AAE0"
   stroke="#ffffff"
   stroke-width="0.75"
   stroke-linecap="round"
   d="m 153.15393,25.406257 1.544,1.344 -2.244,2.67 -1.412,-0.284 -0.664,-1.786 -1.986,1.084 0.412,3.302 -1.302,2.15 2.69,3.34 1.178,-4.596 2.538,1.86 1.076,-0.606 2.706,1.528 0.122,2.83 3.906,-0.348 2.09,3.438 1.626,0.31 0.344,-2.094 1.916,1.944 7.594,-0.864 4.868,-2.674 -1.118,1.342 3.1,0.134 -0.06,1.904 7.4,-0.632 1.42,-3.936 -5.62,-1.476 -0.694,-2.72 1.008,-1.24 4.452,0.458 1.804,-7.814 -3.124,-0.262 -1.68,-2.218 -2.456,-0.11 -0.88,-1.874 -5.374,1.418 0.012,-2.008 -5.268,5.856 -1.548,0.038 -0.8,-2.298 -4.266,-0.502 -3.82,-2.34 -2.072,-3.752 -2.438,2.328 -0.072,1.73 -4.524,1.24 0.768,0.696 -1.036,0.666 z"
   style="fill:#00ff00;fill-opacity:1" />







<path
   id="_x34_6_Aïn_Témouchent"
   fill="#86AAE0"
   stroke="#ffffff"
   stroke-width="0.75"
   stroke-linecap="round"
   d="m 51.700928,63.246257 -1.372,0.14 -0.524,-1.82 -6.978,-3.496 -0.662,0.66 -0.744,-1.544 -2.162,0.91 -4.676,-1.586 -1.836,2.672 -2.166,0.528 -2.102,-1.336 0.404,-1.908 -1.694,-1.246 5.338,-3.532 3.254,0.282 4.236,-2.486 4.05,-11.214 1.788,0.07 4.12,-3.244 2.682,2.858 -0.444,1.434 2.016,0.014 -0.766,2.038 -1.786,0.502 0.348,3.182 0.024,-1.242 1.788,-0.09 -0.404,-1.192 1.642,1.314 3.14,0.042 10.132,-3.248 1.552,5.842 -1.544,1.128 -0.054,2.202 -5.676,0.994 -0.136,1.456 -1.936,0.912 -1.626,-1.096 -1.562,2.79 -1.346,-0.358 0.572,3.892 -2.76,0.922 -0.496,2.902 z"
   style="fill:#00ff00;fill-opacity:1" />

<path
   id="_x34_8_Relizane"
   fill="#86AAE0"
   stroke="#ffffff"
   stroke-width="0.75"
   stroke-linecap="round"
   d="m 129.49293,46.238257 -4.094,-0.636 -0.59,-1.324 -3.442,0.17 -1.836,-1.834 -3.78,0.082 -2.564,-3.604 -1.716,1.222 -0.25,-1.048 -3.432,0.986 -2.434,-7.222 -1.156,-0.388 3.488,-4.148 1.734,-1.078 1.754,0.746 2.664,-2.874 -0.454,-1.82 1.18,-1.984 -1.348,0.072 -0.626,-1.534 1.692,-2.036 2.452,1.144 1.106,-1.21 4.252,-0.186 -0.718,-1.742 1.268,-1.398 -2.578,-2.7 3.958,-4.9420002 4.11,0.642 4.346,-1.602 0.934,3.788 1.074,0.042 -1.654,3.3740002 1.018,-0.314 1.038,3.994 3.55,-1.326 -0.694,0.488 1.186,0.082 1.082,2.358 3.126,1.97 5.676,-1.626 4.344,6.574 1.544,1.344 -2.244,2.67 -1.412,-0.284 -0.664,-1.786 -1.986,1.084 0.412,3.302 -1.302,2.15 -2.898,1.144 -1.136,1.972 -4.116,-0.414 -0.328,1.826 -1.622,-0.22 -0.224,1.736 -2.428,0.194 -3.454,5.756 z"
   style="fill:#00ff00;fill-opacity:1" />










<path
   id="_x30_2_Chlef-3"
   style="fill:#ff8080;fill-opacity:1;stroke:#ffffff;stroke-opacity:1"
   d="m 229.686,-24.813563 -0.31445,2.58984 -4.23828,1.24414 -2.32422,-1.05078 -0.98633,-2.40039 -3.66406,-0.17773 -2.41016,0.4707 -0.54492,1.88867 -1.80078,0.34766 -1.21875,3.23047 c 0,0 0,0 -0.002,0 l -10.37696,5.67382 -5.45312,-0.0781 -0.96289,-2.04882 -2.35156,-0.5586 -13.48047,4.0625 -4.6211,-0.54687 -8.99414,1.35937 -8.66406,1.30664 -5.33789,-1.375 -3.17969,2.40235 -8.41601,0.6289 -6.11133,2.36328 -1.97852,3.37305 -6.23047,2.4961 -2,6.5664 4.10938,0.64258 4.3457,-1.60156 0.9336,3.78711 1.07422,0.043 -1.6543,3.37304 1.01953,-0.31445 1.03711,3.99414 3.55078,-1.32617 -0.69531,0.48828 1.1875,0.082 1.08203,2.35938 3.125,1.96875 5.67578,-1.625 4.34375,6.57421 0.12109,-2.82812 1.03516,-0.66602 -0.76758,-0.69726 4.52344,-1.24024 0.0723,-1.72851 2.4375,-2.32813 2.07227,3.75196 3.81836,2.3457 4.26563,0.50195 0.79882,2.29688 1.54883,-0.0371 5.26758,-5.85547 -0.0117,2.00781 5.375,-1.41797 0.87891,1.87305 2.45703,0.11133 1.67969,2.21679 3.12304,0.26172 v 0.004 l -1.80273,7.81446 -4.45313,-0.45704 -1.00781,1.24024 0.69336,2.71875 5.62109,1.47656 -1.41992,3.93555 1.31836,4.72657 4.27734,-0.33399 4.94727,-1.625 0.45899,-1.11914 5.39843,3.81836 2.58594,-1.32422 3.20703,-5.12891 3.66016,-2.7207 1.1582,0.51757 -1.35156,-10.00976 5.16992,-1.41406 1.38672,4.67382 1.39844,-0.28906 0.37109,4.40039 5.57422,-1.40234 1.50586,-2.73828 -0.20899,-2.41211 2.06446,-2.04102 1.70703,3.43164 2.18164,-0.0977 0.97851,-0.99023 -0.81054,-1.54102 1.78711,-0.28125 5.41797,8.31055 -0.0723,-5.93164 -1.7207,-2.5625 4.04101,-1.36914 -1.09961,-0.73438 2.28321,-1.37304 -0.54493,-1.58985 -2.81054,-5.29687 -5.57617,-0.86914 -0.95899,-1.56055 2.0293,0.0293 1.79687,-1.86914 0.81641,-0.9707 -1.3125,-2.08399 0.45703,-1.70898 2.85156,-0.82813 0.36133,-1.61718 -2.13867,-1.95508 0.88281,-2.5332 2.14063,-1.19532 -1.99219,-2.7832 0.87695,-1.37109 -2.71679,-1.40821 -3.11915,2.96094 -5.44335,-5.25781 0.49414,-2.55664 -1.16993,-0.54102 0.76758,-0.82812 -0.93945,-1.71289 1.07227,-0.95899 -1.77344,0.69922 -1.51172,-2.62109 1.3789,-1.0918 -0.78124,-1.4043 1.32031,0.9668 4.55664,-1.49023 -0.0605,-2.03906 -1.3164,0.42968 0.54296,-1.21875 z"
   sodipodi:nodetypes="cccccccccccccccccccccccccccccccccccccccccccccccccccccccccccccccccccccccccccccccccccccccccccccccccccccccccccccccccccccccccccccccc" /><path
   id="_x30_3_Laghouat-6"
   style="fill:#916f6f;fill-opacity:1;stroke:#ffffff;stroke-opacity:1"
   d="m 283.34811,15.014557 -6.77929,2.91992 -5.51953,-1.96093 -4.41993,1.52148 -1.14062,-2.20117 -2.1211,6.52148 0.90039,2.7793 -5.08007,-1.7793 -2.53907,2.41993 -1.62109,-0.10157 -0.69922,-2 -2.14062,-0.43945 -1.29883,-1.85937 -3.08008,-0.30079 -1.06055,1.6211 0.53907,1.58008 -2.2793,1.3789 1.09961,0.74024 -4.03906,1.35937 1.71875,2.56055 0.0605,5.93945 -5.40039,-8.32031 -1.79883,0.28125 0.82032,1.53906 -0.98047,1 0.48633,1.97656 -0.0586,-0.0586 -0.61914,-2.51757 -2.18164,0.0977 -1.71875,-3.43946 -2.05859,2.04102 0.2207,2.41992 -1.52344,2.74024 -5.55664,1.39843 -0.38086,-4.39843 -1.39843,0.27929 -1.38086,-4.66015 -5.18164,1.40039 1.35937,10.01953 -1.1582,-0.51953 -3.66016,2.71875 -3.19922,5.1211 -2.60351,1.33984 -5.37891,-3.82031 -0.46094,1.12109 -4.95703,1.61914 -4.28125,0.33984 -1.31836,-4.74023 -7.40039,0.64063 -2.64062,0.51953 0.43945,2.80078 13.56055,8.19922 2.09765,3.67968 5.36133,-4.59961 2.09961,1.60157 0.66016,2.23828 3.5,0.83984 -0.0195,3.04102 -1.35938,0.51953 -2.24219,4.5 2.86133,2.56055 -6.43945,2.55859 -2.89844,9.32031 -2.94336,0.90039 0.3418,4.85938 -6.04102,0.74023 -0.85742,2.09961 -3.96094,1.75977 -4.70117,5.14062 -9.75976,3.500003 -3.67774,4.17969 -0.7207,4.88086 -3.2793,1.93945 -0.5625,-2.25976 -7.54101,4.43945 1.62304,2.70117 -4.40039,2.91992 -2.23828,-3.16015 -0.42383,-3.67969 -11.07617,0.58008 h -0.0215 l 1.36132,-9.76172 -7.9414,-1.6582 -5.72266,-1.460941 -9.16015,6.259761 -3.45899,-4.57812 -5.79883,4.01758 -4.33984,-0.51758 -4.199216,-4.24219 -4.66211,-1.539061 2.45899,11.019531 -1.87696,1.38086 -3,6.13867 -2.74023,-0.39844 -3.2793,1.41993 -4.18164,5.77929 -1.69922,-0.0801 -0.64062,2.25977 -6.25782,-19.53906 -3.68359,-2.08008 -8.11914,5.01953 -5.91797,-1.80078 -0.68359,0.83984 -1.17774,-2.03906 -4.25781,3.14063 -2.18359,-3.26172 -3.04102,0.96093 -2.45898,2.82032 -9.97657,-0.0606 -7.2207,5.26172 -2.38086,11.39844 1.10156,5.03906 -2.56445,1.86133 -0.41797,1.77929 3.59961,1.01954 2.35938,4.04101 0.19922,3.83984 -3.43946,7.61915 -0.3789,5.14062 3.8789,6.83984 4.40235,4.17969 -0.75977,4.80078 -2.52148,0.83985 6.70117,11.35937 4.75781,2.36132 11.54102,9.30078 -5.74024,5.17969 0.31836,4.7793 2.86328,0.24023 -1.08203,5.73828 2.75977,0.082 0.60156,3.11914 11.6582,-6.20117 13.58008,3.80274 3.62109,-2.66016 4.82032,1.03906 3.26172,-4.80078 -1.90235,8.7793 -4.16015,-0.95899 -2.19922,1.64063 -2.09766,4.43945 -0.28125,8.36133 1.35742,4.55859 -1.3789,0.11914 v 0.0215 l 0.35937,1.91992 -1.19726,1.70117 1.89843,2.35742 -2.48047,2.42188 2.5,4.01953 -2.01953,2.39844 0.0586,3.74023 1.69922,3.64063 5.84375,4.70117 -1.64063,5.95898 28.058586,23.82032 31.64063,-22.36133 42.1582,-26.35742 9.30274,-10.30274 -1.44336,-17.21875 5.16211,-3.35937 -2.25977,-9.06055 -0.0215,-0.0195 -1.5586,-6.2793 -1.14062,-12.36132 21.6582,-1.90039 10.74219,-3.2207 17.09961,4.08008 -0.66016,-5.79883 -7.31836,-4.46094 15.69922,-0.71875 1.88086,-1.48047 0.88086,0.64063 0.83789,-1.5 0.59766,1.01953 1.82422,-0.78125 5.35937,2.2207 1.53906,-0.83984 26.16016,1.80078 23.73828,6.43945 -4.41797,-22.88086 4.83789,-10.25976 -0.21679,-3.79883 1.03711,-1.75977 -7.99805,-2 -1.46094,-2.4414 -3.91992,0.64062 -0.7793,-1.90039 -6.51953,-1.24023 -2.16211,-2.95899 -13.13867,-5.66015 -0.90039,-1.38086 0.79883,-1.03906 2.68164,-0.25977 2.74023,-2.94141 h 2.40039 l -1.14062,-1.45898 -4.70117,-0.78125 -0.7793,-2.97852 -3.7793,-0.54101 -1.85937,-2.2793 0.69336,-1.08984 0.375,0.3125 3.98046,-1.04102 1.56055,-2.01953 -3.64062,-1.86133 0.62109,-1.43945 -2.44141,-2.53906 -0.81835,-6.179693 -1.06055,-0.60156 4.3789,-3.66016 1.76172,-3.6582 9.61914,-0.0801 3.66016,-2.28125 1.32031,0.88086 2.03906,-1.08008 -2.5996,-2.17969 2,-0.33984 1.88086,-3 8.77929,-2.64063 h 0.0195 l 2.08008,-0.62109 1.35938,-3.17969 1.08007,-0.13867 -1.09961,-0.60156 -0.8789,-6.97852 -4.25977,-2.80078 -5.86133,-0.11914 -0.3789,-1.20117 2.35937,-2.35938 1.06055,0.37891 1.83984,-3.09961 0.74024,-5.08008 -1.64063,-8.79883 3.90039,3.37891 1.91993,-3 0.13867,1.56055 1.66015,-1.83985 2.1211,0.0391 1.43945,2.1211 3.64063,-1.80079 5.32031,-5.93945 -6.98047,-0.91992 -1.09961,-1.6211 0.83984,-1.08008 -0.98046,-1.01953 -2.22071,0.48047 -2.93945,-2.09961 0.33984,-1.24023 -2.82031,1.01953 -0.35937,-2.43945 -2.33985,0.0996 -2.64062,-3.33985 -5.43946,1.06055 -4.16015,3.13867 -1.32032,-1.53906 0.78126,-2.17969 -2.66016,1.2793 0.71875,1.98047 -5.63867,-0.58008 1.3789,-4.19922 3.22071,-1.24024 z"
   sodipodi:nodetypes="ccccccccccccccccccccccccccccccccccccccccccccccccccccccccccccccccccccccccccccccccccccccccccccccccccccccccccccccccccccccccccccccccccccccccccccccccccccccccccccccccccccccccccccccccccccccccccccccccccccccccccccccccccccccccccccccccccccccccccccccccccccccccccccccccccccccc" /></svg>
